<?xml version="1.0" standalone="no"?>
<!DOCTYPE svg PUBLIC "-//W3C//DTD SVG 20010904//EN"
 "http://www.w3.org/TR/2001/REC-SVG-20010904/DTD/svg10.dtd">
<svg version="1.0" xmlns="http://www.w3.org/2000/svg"
 width="1280.000000pt" height="964.000000pt" viewBox="0 0 1280.000000 964.000000"
 preserveAspectRatio="xMidYMid meet">
<metadata>
Created by potrace 1.15, written by Peter Selinger 2001-2017
</metadata>
<g transform="translate(0.000000,964.000000) scale(0.100000,-0.100000)"
fill="#ffffff" stroke="none">
<path d="M9660 9635 c0 -3 13 -72 30 -153 60 -303 111 -465 205 -657 154 -318
369 -504 671 -580 91 -24 254 -47 264 -38 3 3 5 82 5 176 0 150 -3 183 -24
257 -81 291 -278 529 -609 733 -98 61 -330 180 -455 233 -83 36 -87 37 -87 29z"/>
<path d="M3085 9610 c-22 -11 -106 -50 -186 -88 -567 -268 -854 -570 -924
-971 -16 -87 -20 -235 -9 -315 l7 -47 46 6 c190 25 299 54 416 112 293 147
493 437 614 893 27 100 91 398 91 422 0 11 -9 9 -55 -12z"/>
<path d="M11246 9183 c-130 -262 -205 -457 -248 -650 -32 -142 -32 -382 0
-503 46 -171 132 -318 271 -463 l84 -88 40 38 c108 103 218 288 262 438 44
152 48 373 10 560 -22 108 -92 315 -155 455 -52 116 -177 360 -185 360 -3 0
-38 -66 -79 -147z"/>
<path d="M1408 9198 c-208 -392 -299 -686 -299 -960 0 -137 10 -211 43 -316
42 -137 142 -302 241 -400 l54 -53 77 79 c96 97 155 180 212 297 57 117 83
223 91 366 13 256 -66 538 -261 937 -47 94 -87 172 -89 172 -2 0 -33 -55 -69
-122z"/>
<path d="M9880 8310 c0 -23 133 -407 173 -501 181 -421 416 -660 737 -752 151
-44 395 -63 406 -32 3 8 1 68 -5 133 -47 513 -366 835 -1071 1082 -178 63
-240 81 -240 70z"/>
<path d="M2745 8251 c-397 -134 -632 -261 -824 -446 -201 -193 -296 -407 -316
-704 l-7 -104 139 6 c517 23 847 318 1076 962 45 126 110 336 105 340 -2 1
-79 -23 -173 -54z"/>
<path d="M12015 7867 c-317 -395 -472 -680 -515 -949 -18 -110 -8 -312 20
-408 28 -98 88 -226 152 -322 57 -87 47 -86 143 -15 386 286 503 725 365 1361
-24 109 -99 378 -108 388 -4 4 -30 -21 -57 -55z"/>
<path d="M727 7913 c-9 -15 -87 -300 -107 -390 -111 -508 -57 -892 165 -1170
36 -45 89 -102 118 -126 67 -57 160 -127 169 -127 11 0 93 130 137 217 67 135
93 236 98 394 4 104 2 155 -11 220 -45 221 -138 416 -323 677 -98 137 -240
314 -246 305z"/>
<path d="M10594 6869 c26 -621 158 -989 435 -1211 123 -98 318 -191 448 -212
l41 -7 23 93 c33 135 34 367 1 488 -60 222 -203 437 -422 636 -118 107 -339
270 -494 364 l-39 24 7 -175z"/>
<path d="M2045 6922 c-200 -134 -282 -199 -418 -331 -283 -275 -407 -543 -394
-856 6 -147 40 -305 66 -305 72 0 298 93 412 171 246 165 406 470 463 877 19
133 39 426 34 499 l-3 53 -160 -108z"/>
<path d="M12478 6321 c-322 -194 -530 -365 -661 -543 -153 -208 -216 -409
-204 -647 5 -99 27 -233 47 -286 l9 -23 68 17 c392 102 654 377 783 825 37
127 75 347 89 516 17 195 20 230 17 230 -1 0 -68 -40 -148 -89z"/>
<path d="M174 6358 c3 -18 8 -76 11 -128 46 -705 272 -1143 688 -1335 62 -29
232 -85 256 -85 9 0 37 118 52 220 15 98 5 285 -19 375 -81 295 -285 538 -667
795 -97 65 -305 190 -317 190 -5 0 -7 -15 -4 -32z"/>
<path d="M10642 5794 c-103 -481 -111 -845 -25 -1104 84 -257 239 -435 507
-582 38 -21 70 -37 72 -36 1 2 20 39 42 83 84 168 118 331 109 508 -19 339
-205 678 -593 1076 l-102 105 -10 -50z"/>
<path d="M2027 5708 c-180 -193 -276 -312 -367 -458 -239 -381 -273 -741 -105
-1095 49 -104 45 -100 96 -75 88 45 209 130 282 199 163 155 262 355 297 597
16 112 13 377 -6 524 -16 123 -69 419 -77 427 -3 2 -56 -51 -120 -119z"/>
<path d="M12615 4915 c-500 -80 -801 -202 -1011 -410 -110 -108 -194 -250
-244 -412 -21 -67 -53 -243 -46 -250 10 -10 142 -23 236 -23 417 0 757 241
1059 751 58 98 191 351 191 363 0 9 -34 6 -185 -19z"/>
<path d="M0 4923 c0 -3 37 -79 83 -167 153 -296 262 -453 426 -617 161 -160
308 -251 492 -301 73 -20 107 -23 259 -23 96 0 187 3 203 8 26 7 27 10 21 50
-59 409 -248 667 -617 842 -182 86 -388 142 -698 190 -184 29 -169 27 -169 18z"/>
<path d="M10342 4415 c-103 -340 -138 -553 -129 -784 11 -283 95 -483 283
-672 84 -85 228 -194 243 -184 19 11 111 168 141 242 95 227 102 449 25 718
-34 117 -153 360 -245 500 -76 114 -251 354 -260 355 -3 0 -29 -79 -58 -175z"/>
<path d="M2292 4438 c-434 -578 -548 -1024 -368 -1440 36 -82 84 -168 122
-215 l22 -28 53 37 c229 158 370 350 436 593 26 93 28 114 28 295 0 205 -9
276 -60 485 -35 142 -117 405 -126 405 -4 0 -53 -60 -107 -132z"/>
<path d="M9808 3730 c-238 -440 -330 -719 -329 -1001 1 -289 110 -529 338
-742 l30 -27 63 64 c234 239 328 545 274 904 -31 210 -108 434 -247 717 l-83
169 -46 -84z"/>
<path d="M2863 3633 c-100 -206 -155 -342 -198 -495 -111 -383 -75 -714 106
-982 55 -80 167 -206 184 -206 22 0 171 175 226 264 169 275 186 586 53 978
-38 115 -236 536 -278 593 -10 14 -23 -7 -93 -152z"/>
<path d="M12216 3779 c-425 -35 -728 -141 -923 -323 -151 -141 -233 -279 -298
-499 l-23 -78 26 -10 c80 -30 183 -44 332 -44 131 1 168 4 240 24 330 92 615
339 928 808 45 67 82 124 82 127 0 8 -246 5 -364 -5z"/>
<path d="M220 3774 c0 -16 190 -291 273 -394 104 -129 277 -299 377 -369 100
-70 230 -135 337 -168 81 -24 103 -27 263 -27 151 -1 187 2 267 22 l91 23 -19
72 c-137 495 -480 749 -1111 821 -154 18 -478 32 -478 20z"/>
<path d="M9063 2910 c-255 -252 -399 -442 -483 -637 -103 -240 -115 -460 -38
-703 24 -76 87 -220 104 -239 2 -2 36 13 76 34 296 150 482 403 552 751 40
198 38 510 -4 802 -11 75 -20 143 -20 150 0 6 -4 12 -8 12 -4 0 -85 -76 -179
-170z"/>
<path d="M3542 2992 c-43 -284 -56 -603 -33 -784 25 -190 88 -373 175 -509 59
-91 187 -219 281 -280 72 -47 168 -99 183 -99 23 0 115 228 143 355 22 99 17
304 -10 405 -48 180 -128 336 -262 510 -73 95 -333 368 -420 441 l-46 38 -11
-77z"/>
<path d="M10986 2685 c-315 -51 -549 -199 -712 -450 -55 -85 -104 -177 -104
-195 0 -18 164 -90 265 -115 353 -90 697 11 1080 315 44 35 154 137 244 226
l165 161 -70 12 c-245 43 -338 53 -554 56 -165 3 -249 1 -314 -10z"/>
<path d="M1300 2679 c-91 -10 -413 -59 -418 -64 -6 -6 264 -270 348 -341 206
-174 441 -307 630 -359 172 -47 372 -44 539 7 110 33 231 89 231 106 0 25 -88
178 -151 261 -169 225 -404 352 -719 391 -99 12 -338 11 -460 -1z"/>
<path d="M8355 2158 c-16 -4 -102 -24 -190 -44 -671 -152 -1029 -420 -1145
-859 -22 -84 -48 -280 -38 -290 13 -13 276 -5 357 10 363 70 649 332 894 821
53 106 159 354 155 364 -2 3 -16 3 -33 -2z"/>
<path d="M4410 2147 c0 -14 85 -210 144 -332 115 -238 224 -404 355 -538 165
-171 331 -266 545 -314 74 -16 348 -24 362 -10 12 11 -12 200 -36 292 -12 44
-41 122 -66 174 -162 344 -488 547 -1107 690 -171 39 -197 45 -197 38z"/>
<path d="M9925 1829 c-229 -23 -431 -118 -597 -283 -70 -69 -158 -177 -158
-194 0 -15 140 -108 227 -152 131 -65 237 -92 393 -97 252 -9 482 54 775 215
98 53 435 272 435 282 0 9 -353 130 -481 164 -212 57 -430 81 -594 65z"/>
<path d="M2590 1814 c-14 -2 -56 -9 -95 -15 -148 -23 -417 -102 -669 -199
l-29 -11 64 -46 c129 -95 328 -216 464 -283 258 -127 429 -172 645 -172 157 1
274 25 405 86 76 35 238 137 251 157 9 16 -41 84 -133 180 -139 144 -285 232
-463 279 -68 18 -118 23 -250 25 -91 2 -176 2 -190 -1z"/>
<path d="M8559 1195 c-86 -16 -198 -55 -280 -96 -60 -30 -180 -109 -216 -142
l-22 -20 43 -56 c108 -140 273 -269 421 -330 231 -96 527 -105 880 -26 129 29
485 141 485 153 0 8 -254 190 -340 244 -195 124 -385 210 -551 252 -132 34
-309 42 -420 21z"/>
<path d="M3958 1190 c-264 -33 -570 -181 -932 -450 l-100 -74 30 -13 c60 -26
277 -94 391 -123 186 -47 286 -62 454 -67 291 -10 503 48 698 192 71 53 182
163 230 230 l32 44 -63 47 c-232 171 -491 246 -740 214z"/>
<path d="M6343 960 c-153 -36 -235 -204 -169 -345 90 -194 363 -191 449 5 59
133 -14 293 -154 334 -57 17 -76 18 -126 6z"/>
<path d="M7335 773 c-159 -20 -326 -82 -473 -175 l-53 -34 52 -80 c100 -151
275 -304 423 -369 303 -134 681 -135 1209 -2 l128 32 -123 106 c-242 208 -384
307 -573 400 -209 102 -413 144 -590 122z"/>
<path d="M5255 759 c-315 -43 -630 -225 -1063 -615 -11 -9 16 -19 135 -47 310
-75 436 -92 668 -91 250 0 405 34 575 125 140 75 271 197 369 343 l52 76 -63
41 c-208 134 -460 197 -673 168z"/>
</g>
</svg>
