<?xml version="1.0" standalone="no"?>
<!DOCTYPE svg PUBLIC "-//W3C//DTD SVG 20010904//EN"
 "http://www.w3.org/TR/2001/REC-SVG-20010904/DTD/svg10.dtd">
<svg version="1.0" xmlns="http://www.w3.org/2000/svg"
 width="200.000000pt" height="200.000000pt" viewBox="0 0 200.000000 200.000000"
 preserveAspectRatio="xMidYMid meet">
<metadata>
Created by potrace 1.11, written by Peter Selinger 2001-2013
</metadata>
<g transform="translate(0.000000,200.000000) scale(0.100000,-0.100000)"
fill="#000000" stroke="none">
<path d="M415 1618 c-2 -7 -49 -285 -105 -618 -56 -333 -104 -613 -106 -622
-5 -17 7 -18 160 -18 l165 0 6 43 c4 23 28 188 54 367 l47 325 146 -365 146
-365 67 0 67 0 151 362 c83 199 152 361 153 360 2 -1 21 -148 43 -327 23 -179
44 -342 47 -362 l6 -38 165 0 165 0 -6 27 c-7 32 -186 1224 -186 1236 0 4 -75
6 -166 5 l-166 -3 -130 -325 c-71 -179 -133 -328 -137 -332 -3 -4 -63 142
-132 325 l-126 332 -162 3 c-124 2 -162 0 -166 -10z"/>
</g>
</svg>
