<svg id="Calque_1" data-name="Calque 1" xmlns="http://www.w3.org/2000/svg" viewBox="0 0 138.24365 33.87158"><defs><style>.cls-1{isolation:isolate;}.cls-2{fill:#e32e72;}</style></defs><title>misakey-rose</title><g class="cls-1"><path class="cls-2" d="M3.97217,2.37959H9.9917l4.77148,12.56934L19.81592,2.37959h6.082l3.55566,23.51709H23.34033L21.625,12.36006h-.0625l-5.645,13.53662H13.48486l-5.396-13.53662h-.0625L6.06152,25.89668H-.02Z" transform="translate(0.02002 -0.00948)"/><path class="cls-2" d="M37.94043,3.75166A3.18115,3.18115,0,1,1,34.75928.571,3.19456,3.19456,0,0,1,37.94043,3.75166Zm-.34277,22.145H31.92139V9.8962h5.67627Z" transform="translate(0.02002 -0.00948)"/><path class="cls-2" d="M51.91406,14.01338a7.05021,7.05021,0,0,0-3.05664-.78027c-.65478,0-1.77783.28125-1.77783,1.0918,0,1.09179,1.77783,1.248,2.55762,1.40332,2.65136.53027,4.64746,1.77832,4.64746,4.7417,0,4.21-3.83643,5.957-7.54785,5.957a12.4116,12.4116,0,0,1-6.45606-1.83985l2.0586-3.96093a9.128,9.128,0,0,0,4.49121,1.62109c.71728,0,1.77734-.34277,1.77734-1.21582,0-1.248-1.77734-1.31055-3.55518-1.77832s-3.55566-1.34131-3.55566-4.21045c0-3.92969,3.55566-5.67676,7.04883-5.67676a12.7283,12.7283,0,0,1,5.271,1.0293Z" transform="translate(0.02002 -0.00948)"/><path class="cls-2" d="M74.83984,25.89668H69.16357V24.11934h-.0625a5.62013,5.62013,0,0,1-4.834,2.30762c-4.74072,0-8.07813-3.96094-8.07813-8.54639,0-4.585,3.27491-8.51465,8.01563-8.51465a6.527,6.527,0,0,1,4.959,2.08985V9.8962h5.67627ZM62.05273,17.91182a3.64946,3.64946,0,0,0,7.29786,0,3.64906,3.64906,0,0,0-7.29786,0Z" transform="translate(0.02002 -0.00948)"/><path class="cls-2" d="M84.293,15.66573,90.1875,9.8962h7.7666l-8.01562,7.3916,8.51465,8.60888H90.5l-6.207-6.51855v6.51855H78.61719V.00948H84.293Z" transform="translate(0.02002 -0.00948)"/><path class="cls-2" d="M116.51465,18.84786H104.56934c0,2.30859,1.21582,3.55566,3.55468,3.55566a2.83815,2.83815,0,0,0,2.71387-1.46582h5.458a6.53247,6.53247,0,0,1-3.02539,4.14844,9.78973,9.78973,0,0,1-5.11524,1.34082c-5.30175,0-9.26269-2.99414-9.26269-8.51514,0-5.333,3.64941-8.5459,8.85742-8.5459,5.55176,0,8.76465,3.43067,8.76465,8.88867ZM111.24316,15.573a3.40578,3.40578,0,0,0-6.58105,0Z" transform="translate(0.02002 -0.00948)"/><path class="cls-2" d="M116.76563,9.8962h6.5498l4.27344,8.20312,4.17871-8.20312h6.45605L125.40527,33.88106H119.043l5.458-10.168Z" transform="translate(0.02002 -0.00948)"/></g></svg>